<svg xmlns="http://www.w3.org/2000/svg" xmlns:xlink="http://www.w3.org/1999/xlink" width="" zoomAndPan="magnify" viewBox="0 0 595.5 842.249979" height="" preserveAspectRatio="xMidYMid meet" version="1.0"><defs><clipPath id="0643e4d6cb"><path d="M 14.710938 0 L 37.253906 0 L 37.253906 841.140625 L 14.710938 841.140625 Z M 14.710938 0 " clip-rule="nonzero"/></clipPath><clipPath id="3bdf43b58f"><path d="M 48.21875 0 L 70.761719 0 L 70.761719 841.140625 L 48.21875 841.140625 Z M 48.21875 0 " clip-rule="nonzero"/></clipPath><clipPath id="49920737ca"><path d="M 82.003906 0 L 104.546875 0 L 104.546875 841.140625 L 82.003906 841.140625 Z M 82.003906 0 " clip-rule="nonzero"/></clipPath></defs><g clip-path="url(#0643e4d6cb)"><path fill="currentColor" d="M 14.710938 0 L 37.253906 0 L 37.253906 841.152344 L 14.710938 841.152344 Z M 14.710938 0 " fill-opacity="1" fill-rule="nonzero"/></g><g clip-path="url(#3bdf43b58f)"><path fill="currentColor" d="M 48.21875 0 L 70.761719 0 L 70.761719 841.152344 L 48.21875 841.152344 Z M 48.21875 0 " fill-opacity="1" fill-rule="nonzero"/></g><g clip-path="url(#49920737ca)"><path fill="currentColor" d="M 82.003906 0 L 104.546875 0 L 104.546875 841.152344 L 82.003906 841.152344 Z M 82.003906 0 " fill-opacity="1" fill-rule="nonzero"/></g></svg>