<svg xmlns="http://www.w3.org/2000/svg" xmlns:xlink="http://www.w3.org/1999/xlink" width="" zoomAndPan="magnify" viewBox="0 0 595.5 842.249979" height="" preserveAspectRatio="xMidYMid meet" version="1.0"><defs><clipPath id="03d3ef7a13"><path d="M 455 692 L 594.984375 692 L 594.984375 841.5 L 455 841.5 Z M 455 692 " clip-rule="nonzero"/></clipPath><clipPath id="88f34a9671"><path d="M 580.921875 669.507812 L 657.808594 714.75 L 532.683594 927.394531 L 455.796875 882.148438 Z M 580.921875 669.507812 " clip-rule="nonzero"/></clipPath><clipPath id="29fb0cef70"><path d="M 619.367188 692.128906 L 657.808594 714.75 L 494.347656 904.585938 L 455.90625 881.964844 Z M 619.367188 692.128906 " clip-rule="nonzero"/></clipPath><clipPath id="284921bfef"><path d="M 341 501 L 594.984375 501 L 594.984375 841.5 L 341 841.5 Z M 341 501 " clip-rule="nonzero"/></clipPath><clipPath id="fc2fbca275"><path d="M 585.382812 478.742188 L 662.398438 523.769531 L 418.8125 940.441406 L 341.796875 895.417969 Z M 585.382812 478.742188 " clip-rule="nonzero"/></clipPath><clipPath id="c0c0e3b873"><path d="M 623.890625 501.253906 L 662.398438 523.769531 L 380.4375 917.699219 L 341.929688 895.1875 Z M 623.890625 501.253906 " clip-rule="nonzero"/></clipPath></defs><g clip-path="url(#03d3ef7a13)"><g clip-path="url(#88f34a9671)"><g clip-path="url(#29fb0cef70)"><path fill="currentColor" d="M 580.921875 669.507812 L 657.808594 714.75 L 532.859375 927.09375 L 455.972656 881.851562 Z M 580.921875 669.507812 " fill-opacity="1" fill-rule="nonzero"/></g></g></g><g clip-path="url(#284921bfef)"><g clip-path="url(#fc2fbca275)"><g clip-path="url(#c0c0e3b873)"><path fill="currentColor" d="M 585.382812 478.742188 L 662.398438 523.769531 L 418.988281 940.140625 L 341.972656 895.117188 Z M 585.382812 478.742188 " fill-opacity="1" fill-rule="nonzero"/></g></g></g></svg>