<svg xmlns="http://www.w3.org/2000/svg" xmlns:xlink="http://www.w3.org/1999/xlink" width="" zoomAndPan="magnify" viewBox="0 0 595.5 842.249979" height="" preserveAspectRatio="xMidYMid meet" version="1.0"><defs><clipPath id="98c46bc6aa"><path d="M 475 71 L 594.402344 71 L 594.402344 77.929688 L 475 77.929688 Z M 475 71 " clip-rule="nonzero"/></clipPath><clipPath id="96bcd05d35"><path d="M 416 35 L 594.402344 35 L 594.402344 43 L 416 43 Z M 416 35 " clip-rule="nonzero"/></clipPath><clipPath id="fe76474027"><path d="M 357 0 L 594.402344 0 L 594.402344 8 L 357 8 Z M 357 0 " clip-rule="nonzero"/></clipPath></defs><g clip-path="url(#98c46bc6aa)"><path fill="currentColor" d="M 475.808594 71.164062 L 594.417969 71.164062 L 594.417969 78.28125 L 475.808594 78.28125 Z M 475.808594 71.164062 " fill-opacity="1" fill-rule="nonzero"/></g><g clip-path="url(#96bcd05d35)"><path fill="currentColor" d="M 416.503906 35.582031 L 594.417969 35.582031 L 594.417969 42.699219 L 416.503906 42.699219 Z M 416.503906 35.582031 " fill-opacity="1" fill-rule="nonzero"/></g><g clip-path="url(#fe76474027)"><path fill="currentColor" d="M 357.199219 0 L 594.417969 0 L 594.417969 7.117188 L 357.199219 7.117188 Z M 357.199219 0 " fill-opacity="1" fill-rule="nonzero"/></g></svg>