<svg xmlns="http://www.w3.org/2000/svg" xmlns:xlink="http://www.w3.org/1999/xlink" width="" zoomAndPan="magnify" viewBox="0 0 595.5 842.249979" height="" preserveAspectRatio="xMidYMid meet" version="1.0"><defs><clipPath id="5ccc39005c"><path d="M 0.015625 645.726562 L 594.984375 645.726562 L 594.984375 807 L 0.015625 807 Z M 0.015625 645.726562 " clip-rule="nonzero"/></clipPath><clipPath id="ca8fafd5b5"><path d="M 0.015625 660 L 594.984375 660 L 594.984375 807 L 0.015625 807 Z M 0.015625 660 " clip-rule="nonzero"/></clipPath><clipPath id="d5b0696227"><path d="M 0.015625 704 L 594.984375 704 L 594.984375 841 L 0.015625 841 Z M 0.015625 704 " clip-rule="nonzero"/></clipPath></defs><g clip-path="url(#5ccc39005c)"><path fill="currentColor" d="M 0.015625 806.207031 L 0.015625 665.9375 C 246.933594 904.453125 296.011719 662.796875 594.984375 645.8125 L 594.984375 806.207031 Z M 0.015625 806.207031 " fill-opacity="1" fill-rule="evenodd"/></g><g clip-path="url(#ca8fafd5b5)"><path fill="currentColor" d="M 594.984375 806.207031 L 594.984375 708.609375 C 373.371094 649.847656 243.761719 937.882812 0.015625 660.558594 L 0.015625 806.207031 Z M 594.984375 806.207031 " fill-opacity="1" fill-rule="evenodd"/></g><g clip-path="url(#d5b0696227)"><path fill="currentColor" d="M 594.984375 840.308594 L 594.984375 745.03125 C 391.953125 661.375 286.117188 900.589844 0.015625 704.640625 L 0.015625 840.300781 L 594.984375 840.300781 Z M 594.984375 840.308594 " fill-opacity="1" fill-rule="evenodd"/></g></svg>