<?xml version="1.0" encoding="UTF-8"?>
<svg version="1.1" xmlns="http://www.w3.org/2000/svg" width="566" height="449">
<path d="M0 0 C186.78 0 373.56 0 566 0 C566 148.17 566 296.34 566 449 C379.22 449 192.44 449 0 449 C0 300.83 0 152.66 0 0 Z " fill="none" transform="translate(0,0)"/>
<path d="M0 0 C0.33 0 0.66 0 1 0 C1 133.98 1 267.96 1 406 C-147.5 406 -296 406 -449 406 C-438.49341631 384.98683263 -428.27784011 367.79069624 -412 351 C-411.46648926 350.44070801 -410.93297852 349.88141602 -410.38330078 349.30517578 C-402.15871387 340.70080997 -393.57455174 333.06508182 -384 326 C-383.42781738 325.57235352 -382.85563477 325.14470703 -382.26611328 324.70410156 C-373.52583611 318.19019119 -364.47531232 312.38321756 -355 307 C-354.20625977 306.54898926 -353.41251953 306.09797852 -352.59472656 305.63330078 C-333.43982051 294.82618623 -313.71996574 285.44578015 -293.55175781 276.70849609 C-245.63060463 255.94625416 -200.58096644 231.79662293 -159 200 C-158.35788574 199.50951172 -157.71577148 199.01902344 -157.05419922 198.51367188 C-139.91380669 185.35972929 -123.98715587 171.06357051 -108.6875 155.8125 C-108.21128204 155.33896088 -107.73506409 154.86542175 -107.24441528 154.37753296 C-101.60430536 148.76149023 -96.15439018 143.06451709 -91 137 C-90.02701938 135.88196089 -89.05309319 134.76474381 -88.078125 133.6484375 C-81.60910738 126.17924233 -75.40420625 118.54830825 -69.35449219 110.73681641 C-68.01223452 109.01568788 -66.6538591 107.30876242 -65.2890625 105.60546875 C-42.81192157 77.49694075 -25.05000949 46.49363543 -8.12890625 14.828125 C-5.46998056 9.85655987 -2.7588492 4.91676095 0 0 Z " fill="currentColor" transform="translate(565,43)"/>
<path d="M0 0 C0.33 0.99 0.66 1.98 1 3 C-0.65 4.32 -2.3 5.64 -4 7 C-4.33 6.01 -4.66 5.02 -5 4 C-3.35 2.68 -1.7 1.36 0 0 Z " fill="currentColor" transform="translate(505,144)"/>
</svg>
